<?xml version="1.0" standalone="yes"?>
<svg xmlns="http://www.w3.org/2000/svg" width="849" height="227">
<path style="fill:#010101; stroke:none;" d="M0 0L0 227L849 227L849 0L0 0z"/>
<path style="fill:#ffffff; stroke:none;" d="M54 13C55.7683 15.7498 57.1021 15.5747 59 13L54 13M61 13L55 20L55 22L56 23C60.514 20.8933 63.64 17.8446 65 13L61 13M68 13L46.213 34.6373L38.8264 43.7407L23 45L23 174L26 171L27 171L27 174L39 174C39.7267 183.33 45.5634 189.563 55 190C54.4544 194.418 53.7916 197.562 57 201L55 205L71 206L71 210L74 209L74 210L71 213L215 213C215.339 202.589 224.516 208.642 227 201L228 201L228 205L231 205L232 190C237.685 189.551 248.306 191.761 247 184L245 185L244 185L255 177L254 174L263 173L263 165L264 165L264 169L267 169C269.531 160.137 268 149.188 268 140L268 82C268 70.9325 268.521 57.7167 261 49L264 45L263 44L250 47L247 29L243 29L243 33C235.488 29.0564 227.326 27.0379 227 17L223 17L225 13L110 13L82 13L71 15L68 13M228 13L228 16L231 16L231 13L228 13z"/>
<path style="fill:#010101; stroke:none;" d="M211 14L213 16L211 14M73 16L74 17L73 16M77 16L75 17L75 18L77 16M215.333 17.6667L215.667 18.3333L215.333 17.6667M74 19L75 20L74 19z"/>
<path style="fill:#ffffff; stroke:none;" d="M229 20L229 24L230 24L229 20z"/>
<path style="fill:#010101; stroke:none;" d="M221 22L222 23L221 22M65 27L66 27L70 24C67.0116 23.0168 65.9372 24.1499 65 27z"/>
<path style="fill:#ffffff; stroke:none;" d="M43 30L43 31L48 29L43 30z"/>
<path style="fill:#010101; stroke:none;" d="M58 30L59 31L58 30M61 31L62 32L61 31M231 32L232 33L231 32z"/>
<path style="fill:#ffffff; stroke:none;" d="M40 33L39 38L41 38L40 33z"/>
<path style="fill:#010101; stroke:none;" d="M57.6667 35.3333L58.3333 35.6667L57.6667 35.3333M53 37L52 39L53 37M92 37L93 38L92 37M102 37L103 38L102 37M50 39L49 41L50 39M240 39L241 40L240 39M199 40L200 41L199 40M243 40L244 41L243 40M87 41L88 42L87 41M96 41L97 42L96 41M47 42L47 44L49 42L47 42M103 42L104 43L103 42M198 43L184 45L152 45L153 71L157 69L156 71L158 70L159 75L160 75L159 73L161 75L162 75L159 70L162 71L161 69L162 69C166.078 71.0122 172.189 71.7792 176 69L182 73L185 82C186.005 78.4735 186.229 76.0942 183 74L185 73L185 72L182 72L182 71C184.529 70.4943 184.529 70.5057 182 70L182 69L190 69L191 69L192 69C195.152 72.6069 200.106 70.3908 204 69C204.426 71.8721 207.273 72.2391 209 70L224 71L226 66L225 72L229 75L232 73L232 72L228 70L230 66L227 63L231 65L219 59C219 62.2959 214.472 62.2889 212 60.6667C205.892 56.6586 208.861 47.7785 199 47L198 43M140 44L141 45L140 44M202.667 44.3333L203.333 44.6667L202.667 44.3333M87 46L86 57L76 57L87 58L87 61L72 61L67 63L67 64L71 70L80 69L85 69L85 71L86 71L86 69L105 71L105 70L103 70L103 69L106 72L112 69L115 71L114 69L115 69L118 70L119 66L123 67L122 60C135.218 60 134.001 57.0822 134 45L87 46M80 46L79 50L80 50L80 46M136 47L137 48L136 47M207 47L207 48L209 51L210 51L207 47M247 47L247 48C249.75 48.8043 252.543 50.4299 253 47L252 47L253 49L252 49L247 47M83 48L85 50L83 48M211 49L212 50L211 49z"/>
<path style="fill:#ffffff; stroke:none;" d="M199 50L203 55L202 50L199 50z"/>
<path style="fill:#010101; stroke:none;" d="M33.3333 51.6667L33.6667 52.3333L33.3333 51.6667M212 51L212 52L215 52L212 51M220 54L222 56L220 54M29.6667 55.3333L30.3333 55.6667L29.6667 55.3333M257 55L260 57L260 56L257 55M69 56L70 57L69 56M72 57L73 58L72 57M74 57L75 58L74 57z"/>
<path style="fill:#ffffff; stroke:none;" d="M199.603 58.1566C197.87 59.3145 199.664 62.0014 201.397 60.8434C203.13 59.6856 201.336 56.9985 199.603 58.1566z"/>
<path style="fill:#010101; stroke:none;" d="M219 57L220 58L219 57M260.333 58.6667L260.667 59.3333L260.333 58.6667z"/>
<path style="fill:#ffffff; stroke:none;" d="M119 60L121 65L121 60L119 60z"/>
<path style="fill:#010101; stroke:none;" d="M64 61L64 62L67 62L64 61z"/>
<path style="fill:#ffffff; stroke:none;" d="M223.333 63.6667L223.667 64.3333L223.333 63.6667z"/>
<path style="fill:#010101; stroke:none;" d="M131.667 64.3333L132.333 64.6667L131.667 64.3333M265 64L266 65L265 64M61 65L55 75L60 74L60 73L58 72L62 69L61 65M129 65L128 67L129 65M233 66L234 67L233 66M63.6667 68.3333L64.3333 68.6667L63.6667 68.3333M134 68L135 69L134 68M67 69L68 70L67 69z"/>
<path style="fill:#ffffff; stroke:none;" d="M77.6667 69.3333L78.3333 69.6667L77.6667 69.3333M82 69L83 70L82 69M88 69L89 70L88 69M92 69L93 70L92 69M95 69L96 70L95 69M101 69L102 70L101 69M107 69L107 71L109 71L107 69z"/>
<path style="fill:#010101; stroke:none;" d="M121 69L121 72L122 72L121 69M127 69L128 70L127 69z"/>
<path style="fill:#ffffff; stroke:none;" d="M158 69L159 70L158 69M164.667 69.3333L165.333 69.6667L164.667 69.3333M173.667 69.3333L174.333 69.6667L173.667 69.3333M179 69L181 71L181 69L179 69M188 69L189 70L188 69M195 69L195 70L198 70L195 69M199 69L200 70L199 69M205 69L205 70L209 70L209 69L205 69M211 69L211 70L214 70L211 69M215.667 69.3333L216.333 69.6667L215.667 69.3333M226 69L230 73L226 69z"/>
<path style="fill:#010101; stroke:none;" d="M237 70L238 71L237 70M53 71L54 72L53 71M82 72L82 75L84 75L84 72L82 72M92 75L96 77L92 76L92 79L92 80L98 80L98 79L96 78L98 74L94 74L94 73L98 73C95.1196 71.902 93.6498 72.4455 92 75M106 73L106 85L107 85L107 77L108 77L109 87L106 92L107 92L108 90L110 92L110 75L109 75L108 77L110 74L106 73M206 73L206 74L208 75L202 80L207 78L208 93L209 93L207 77L207 76L209 73L206 73z"/>
<path style="fill:#ffffff; stroke:none;" d="M287 73L287 87L309 87L309 146L329 146L329 87L352 87L352 73L287 73M362 73L362 146L382 146L382 114L408 114L408 146L428 146L428 73L408 73L408 100L382 100L382 73L362 73M445 73C445 90.806 439.398 120.208 448.532 135.996C458.801 153.745 497.666 153.1 507.175 135C515.451 119.248 510 90.5392 510 73L491 73C491 88.7624 493.834 107.672 489.956 123C487.86 131.286 478.846 136.289 471.019 131.258C464.767 127.24 465 120.577 465 114L465 73L445 73M527 73L527 146L545 146L545 99L546 99L565.681 132L574.529 144.972L594 146L594 73L576 73L576 113L557.692 84L549.674 73.6034L527 73M612 73L612 146C628.246 146 650.62 149.992 665 140.867C686.533 127.201 687.551 89.7461 664 77.402C649.024 69.5526 628.357 73 612 73M695 73L695 146L748 146L748 132L714 132L714 114L746 114L746 100L714 100L714 87L748 87L748 73L695 73M763 73L763 146L782 146L782 119C796.203 119.168 798.948 136.683 808.666 144.397C813.939 148.581 827.504 146 834 146L810 114C825.231 108.822 829.787 84.9626 814.996 76.3665C801.58 68.5693 778.065 73 763 73M182 74L184 79L185 79L182 74z"/>
<path style="fill:#010101; stroke:none;" d="M234 74L235 75L234 74M58 75L57 78L58 75M82 76L81 78L81 79L84 76L82 76M118.333 76.6667L118.667 77.3333L118.333 76.6667M158 76C158.891 81.5216 155.94 89.3509 161 93L162 76L158 76M51 77L51 93L52 93L53 77L51 77M55 77L56 78L55 77z"/>
<path style="fill:#ffffff; stroke:none;" d="M94 77L95 78L94 77z"/>
<path style="fill:#010101; stroke:none;" d="M121 77L122 78L121 77M218 78L218 79L221 78L220 81L221 81L222 78L218 78M230 78L231 83L229 82L230 93L247 93L246 77L230 78M59 78L60 79L59 78M62 78L63 79L62 78M64 78L65 83L66 83L64 78M79 78L80 79L79 78M171 78L173 83L172 83L170 81L173 85L170 85L170 89L175 85L170 90L170 91L176 88C175.572 83.5834 175.215 80.1459 171 78M195.333 78.6667L195.667 79.3333L195.333 78.6667M56 79L56 80L58 82L55 83L55 84L59 83L56 79M75 79L75 80L75 93L80 93L78 81L84 81L84 80L75 79M197 79L197 80L200 80L197 79M47 80L47 83L48 83L47 80M60 80L60 81L63 83L60 82L55 85L53 92L53 93L64 93L64 80L60 80M204 80L204 81L207 82L204 80M217.667 80.3333L218.333 80.6667L217.667 80.3333M44 81L45 82L44 81M75.3333 81.6667L75.6667 82.3333L75.3333 81.6667M81 82L81 93L82 93L84 83L81 82z"/>
<path style="fill:#ffffff; stroke:none;" d="M173.667 83.3333L174.333 83.6667L173.667 83.3333z"/>
<path style="fill:#010101; stroke:none;" d="M185 83L184 93L185 93L185 83M205.667 83.3333L206.333 83.6667L205.667 83.3333z"/>
<path style="fill:#ffffff; stroke:none;" d="M60.6667 84.3333L61.3333 84.6667L60.6667 84.3333z"/>
<path style="fill:#010101; stroke:none;" d="M65 84L65 93L66 93L65 84z"/>
<path style="fill:#ffffff; stroke:none;" d="M78 84L79 85L78 84z"/>
<path style="fill:#010101; stroke:none;" d="M228 84L228 89L229 89L228 84M53 85L53 89L54 89L53 85M83 85L83 93L84 93L83 85M205 86L205 88L207 88L205 86M782 86L782 106C789.132 105.853 815.002 99.5274 799.867 88.7423C795.588 85.6932 787.101 86.0422 782 86M93 87L95 90L94 92L98 93L98 92L95 92L95 91L98 91L98 90L93 87M95 87L96 88L95 87M97.3333 87.6667L97.6667 88.3333L97.3333 87.6667M196 90L195 88L194 88L195 91L200 90L200 89L198 89L198 88L201 88L196 90M217 87L218 88L217 87M632 87L632 132C638.752 131.467 647.203 131.826 652.907 127.751C663.972 119.845 663.99 99.5708 652.985 91.6489C647.151 87.4503 638.907 87.5451 632 87M201 91L203 89L204 89L207 91C204.946 88.3002 203.033 88.3438 201 91M47 89L48 93L49 93L47 89M217 89L217 93L221 93L221 92L217 89M43 91L43 93L45 91L43 91M92 92L93 93L92 92M182 92L183 93L182 92M206 92L207 93L206 92M146 93L147 94L146 93M55 94L56 95L55 94M108 97L108 98L112 99L112 98L108 97M199 98L200 99L199 98M44 99L45 100L44 99M51 99L52 100L51 99M109 103L110 104L109 103M185 108L186 109L185 108M184 118L185 119L184 118M179 119L180 120L179 119M98 123L99 124L98 123M48 125L49 141L51 141C51 135.781 52.6474 128.352 48 125M53 126L55.8025 146.015L55.6574 155.106L71 157L72 161L67 162L68 165L72 163L71 172L98 175L101 178L98 174L98 173L104 176L106 173L106 176L108 174L112 175L112 176L109 176L109 177L112 178L120 174L121 178L121 175L124 176L128 175L127 173L128 173L131 174L129 176L133 178L134 176L134 126L53 126M46 126L46 133L47 133L46 126M140 126L141 127L140 126M169 126L170 127L169 126M179 126L181 128L179 126M183 127C183.884 130.983 184.826 137.042 180 138L180 139L183 140L183 141L176 138L178 141C167.628 143.285 166.516 145.73 168 157L164 156L164 159L167 158C167 161.821 168.023 165.756 165 165L166 175L157 175L158 173L152 174L152 175L164 174C167.93 177.016 173.644 175.591 178 174L177 176L180 175C179.156 179.56 183.456 173.996 185 173L184 176L187 180L188 180C188.312 176.541 189.79 175.922 193 175L192 178L193 178L212.929 171.817L218 157L217 160L221 162L219 157L231 157L234 151L231 152L235 147L235 146C233 145.773 228.587 143.171 232.373 141.282C234.647 140.146 239.354 141.258 242 141L241 144C247.462 139.628 246 133.057 246 126C226.858 126 201.323 121.584 183 127M172 127L173 128L172 127M175.667 127.333L176.333 127.667L175.667 127.333M178 128L179 129L178 128M136 132L137 133L136 132M143 132L144 133L143 132M178 132L177 134L178 132M172 134L173 136L174 136L175 134L172 134M46 135L46 140L47 140L46 135M169 135L170 136L169 135M136 140L136 145L137 145L136 140M139 142L139 146L140 146L139 142M43 144L44 145L43 144M236 144L237 145L236 144M46.6667 148.333L47.3333 148.667L46.6667 148.333M50 148L51 149L50 148M240 149L241 150L240 149M48 150L49 151L48 150M165 153L166 154L165 153M159 156L160 157L159 156M161.333 157.667L161.667 158.333L161.333 157.667M55 158L56 159L55 158M63 158L62 161L65 161L63 158M138 159L139 160L138 159M160 161L161 162L160 161M25 162L26 163L25 162M159 163C159.308 166.972 160.326 168.442 164 170L164 169L160 168L159 163M265 164L266 165L265 164M28 165L29 166L28 165M67 166L68 167L67 166M218 166L219 167L218 166M260.333 166.667L260.667 167.333L260.333 166.667M30 167L31 168L30 167M25 169L26 170L25 169M34 169L35 170L34 169M157 169L158 170L157 169M260 169L261 170L260 169M254 170L255 171L254 170M151 171L152 172L151 171M218 171L219 172L218 171M258.667 171.333L259.333 171.667L258.667 171.333z"/>
<path style="fill:#ffffff; stroke:none;" d="M264 171L264 172L268 173L264 171M90.6667 173.333L91.3333 173.667L90.6667 173.333M93.3333 173.667L93.6667 174.333L93.3333 173.667M96 173L95 175L96 173M102 173L103 174L102 173M107 173L106 175L107 173M109 173L109 174L115 174L115 173L109 173M116.667 173.333L117.333 173.667L116.667 173.333M120.667 173.333L121.333 173.667L120.667 173.333M123 173L124 174L123 173M125 173L126 174L125 173M131.667 173.333L132.333 173.667L131.667 173.333M167 174L167 175L173 174L167 174M174 173L174 175L176 173L174 173M178 173L179 174L178 173M181 173L181 176L182 176L181 173M186 176L191 175C188.638 173.5 187.64 173.72 186 176M192 173L192 174L195 175L195 174L195 173L192 173M197 173L196 175L197 173z"/>
<path style="fill:#010101; stroke:none;" d="M252 173L248 179C250.819 177.585 252.675 176.288 252 173M200 175L200 176L205 176L200 175M248 174L248 176L250 174L248 174z"/>
<path style="fill:#ffffff; stroke:none;" d="M131 175L132 176L131 175M202 175L203 176L202 175z"/>
<path style="fill:#010101; stroke:none;" d="M88 176L91 188L89 180L88 176M164 177L165 178L164 177M169 177L170 178L169 177M40 178L41 179L40 178M83 178L84 179L83 178M122 178L123 179L122 178M180 178L181 179L180 178z"/>
<path style="fill:#ffffff; stroke:none;" d="M254 178L252 181L254 178z"/>
<path style="fill:#010101; stroke:none;" d="M100 179L101 180L100 179M105 179L106 180L105 179M155 179L152 182L153 180L152 180L151 182L157 183L157 179L155 179M162 179L164 186L160 188L160 189C164.59 187.24 166.574 182.063 162 179M174 179L174 184C175.927 181.885 176.369 180.828 174 179M197 179L198 180L197 179M203 179L204 180L203 179M95 180L96 181L95 180M117 180L115 181L115 182C117.202 182.519 118.179 182.24 117 180M122 180L122 183L123 183L122 180M127 180L127 183L128 183L127 180z"/>
<path style="fill:#ffffff; stroke:none;" d="M163 180L164 181L163 180z"/>
<path style="fill:#010101; stroke:none;" d="M169.333 180.667L169.667 181.333L169.333 180.667M181 180L182 181L181 180M192 180L193 181L192 180z"/>
<path style="fill:#ffffff; stroke:none;" d="M155 181L156 182L155 181M175 181L176 182L175 181z"/>
<path style="fill:#010101; stroke:none;" d="M181 182L182 183L181 182M192 182L192 185L193 185L192 182M100 183L96 184L95 188L101 187L100 183M109 183L111 185L109 183M169.333 183.667L169.667 184.333L169.333 183.667M185 183L186 184L185 183M196 183L197 184L196 183M115.667 184.333L116.333 184.667L115.667 184.333M121 184L122 185L121 184M155 184L150 190L157 188L157 187L155 186L157 184L155 184M181 184C180.157 186.841 180.331 187.665 183 189L181 184z"/>
<path style="fill:#ffffff; stroke:none;" d="M97 186L97 187L100 187L97 186z"/>
<path style="fill:#010101; stroke:none;" d="M105 185L106 186L105 185M132 185L130 189L131 189L134 189L132 185M186 185L187 186L186 185M203 185L204 186L203 185M111 186L112 187L111 186M120 186L117 188L117 189L124 189L124 188L120 186z"/>
<path style="fill:#ffffff; stroke:none;" d="M132 186L133 187L132 186z"/>
<path style="fill:#010101; stroke:none;" d="M169 186L165 188L165 189L173 189L169 186z"/>
<path style="fill:#ffffff; stroke:none;" d="M153 187L154 188L153 187M170 187L171 188L170 187z"/>
<path style="fill:#010101; stroke:none;" d="M187 187L188 188L187 187M192 187L193 188L192 187M92 188L93 189L92 188M103 188L104 189L103 188M105 188L106 189L105 188M107 188L108 189L107 188M111 188L112 189L111 188M115 188L116 189L115 188M125 188L126 189L125 188M128 188L129 189L128 188M158 188L159 189L158 188M174.667 188.333L175.333 188.667L174.667 188.333M177 188L178 189L177 188M135 189L136 190L135 189M142.667 189.333L143.333 189.667L142.667 189.333M57 191L58 192L57 191M105 191L106 192L105 191M107 191L108 192L107 191M109 191L110 192L109 191M111 191L112 192L111 191M113 191L114 192L113 191M115 191L116 192L115 191M117.667 191.333L118.333 191.667L117.667 191.333M169 191L170 192L169 191M171 191L172 192L171 191M173 191L174 192L173 191M175 191L176 192L175 191M177 191L178 192L177 191M179 191L180 192L179 191M181 191L182 192L181 191M61 195L62 196L61 195M227 196L226 198L228 198L227 196M64 197L65 198L64 197M224 198L225 199L224 198M65 199L67 203L68 202L65 199M57 200L58 201L57 200M63 202L64 203L63 202M76 208L77 209L76 208z"/>
</svg>
